<svg xmlns="http://www.w3.org/2000/svg" xmlns:xlink="http://www.w3.org/1999/xlink" viewBox="0 0 834 773.123"><defs><style>.cls-1,.cls-10,.cls-3,.cls-4,.cls-5,.cls-6,.cls-7,.cls-8,.cls-9{isolation:isolate;}.cls-2{fill:#ff8500;}.cls-3{opacity:0.46;fill:url(#linear-gradient);}.cls-10,.cls-3,.cls-4,.cls-5,.cls-6,.cls-7,.cls-8,.cls-9{mix-blend-mode:multiply;}.cls-4{opacity:0.29;fill:url(#linear-gradient-2);}.cls-5{opacity:0.77;fill:url(#linear-gradient-3);}.cls-6{opacity:0.32;fill:url(#linear-gradient-4);}.cls-7{opacity:0.59;fill:url(#linear-gradient-5);}.cls-8{opacity:0.42;fill:url(#linear-gradient-6);}.cls-9{opacity:0.34;fill:url(#linear-gradient-7);}.cls-10{opacity:0.53;fill:url(#linear-gradient-8);}</style><linearGradient id="linear-gradient" x1="379.523" y1="286.475" x2="275.095" y2="286.475" gradientTransform="matrix(1, 0, 0, -1, 0, 774)" gradientUnits="userSpaceOnUse"><stop offset="0" stop-color="#fff"/><stop offset="0.082" stop-color="#f0f0f0"/><stop offset="0.239" stop-color="#c8c8c8"/><stop offset="0.456" stop-color="#888"/><stop offset="0.722" stop-color="#313131"/><stop offset="0.863"/></linearGradient><linearGradient id="linear-gradient-2" x1="496.257" y1="653.78" x2="444.593" y2="595.521" gradientTransform="matrix(1, 0, 0, -1, 0, 774)" gradientUnits="userSpaceOnUse"><stop offset="0" stop-color="#fff"/><stop offset="0.087" stop-color="#f8f8f8"/><stop offset="0.217" stop-color="#e3e3e3"/><stop offset="0.374" stop-color="#c2c2c2"/><stop offset="0.551" stop-color="#949494"/><stop offset="0.747" stop-color="#585858"/><stop offset="0.954" stop-color="#111"/><stop offset="1"/></linearGradient><linearGradient id="linear-gradient-3" x1="154.865" y1="437.416" x2="308.025" y2="386.119" gradientTransform="matrix(1, 0, 0, -1, 0, 774)" gradientUnits="userSpaceOnUse"><stop offset="0" stop-color="#fff"/><stop offset="0.088" stop-color="#f3f3f3"/><stop offset="0.249" stop-color="#d2d2d2"/><stop offset="0.465" stop-color="#9d9d9d"/><stop offset="0.727" stop-color="#545454"/><stop offset="1"/></linearGradient><linearGradient id="linear-gradient-4" x1="-519.736" y1="543.254" x2="-573.787" y2="489.748" gradientTransform="matrix(-1, 0, 0, 1, -182.844, -260.801)" xlink:href="#linear-gradient-2"/><linearGradient id="linear-gradient-5" x1="507.787" y1="464.029" x2="568.978" y2="392.945" xlink:href="#linear-gradient-2"/><linearGradient id="linear-gradient-6" x1="553.565" y1="45.905" x2="481.016" y2="98.669" xlink:href="#linear-gradient-3"/><linearGradient id="linear-gradient-7" x1="309.33" y1="205.142" x2="365.391" y2="67.738" gradientTransform="matrix(1, 0, 0, -1, 0, 774)" gradientUnits="userSpaceOnUse"><stop offset="0" stop-color="#fff"/><stop offset="0.085" stop-color="#f8f8f8"/><stop offset="0.204" stop-color="#e6e6e6"/><stop offset="0.344" stop-color="#c8c8c8"/><stop offset="0.499" stop-color="#9e9e9e"/><stop offset="0.668" stop-color="#676767"/><stop offset="0.845" stop-color="#272727"/><stop offset="0.941"/></linearGradient><linearGradient id="linear-gradient-8" x1="556.514" y1="187.654" x2="493.858" y2="294.28" gradientTransform="matrix(1, 0, 0, -1, 0, 774)" gradientUnits="userSpaceOnUse"><stop offset="0" stop-color="#fff"/><stop offset="0.085" stop-color="#f6f6f6"/><stop offset="0.224" stop-color="#ddd"/><stop offset="0.401" stop-color="#b5b5b5"/><stop offset="0.608" stop-color="#7d7d7d"/><stop offset="0.838" stop-color="#363636"/><stop offset="1"/></linearGradient></defs><g class="cls-1"><g id="Layer_1" data-name="Layer 1"><g id="Layer_1-2" data-name="Layer 1"><path id="B1" class="cls-2" d="M558.94,89.773a99.678,99.678,0,0,1-29.29,70.71l-41.94,41.95L417,131.723,529.65,19.063A99.662,99.662,0,0,1,558.94,89.773Z"/><path id="B2" class="cls-2" d="M416.57,519.693a50.01,50.01,0,0,1-78.13,41.34c-24.94-48.04-30.01-104.14-15.49-155.67l78.97,78.97A49.879,49.879,0,0,1,416.57,519.693Z"/><path id="B2-2" class="cls-3" d="M416.57,519.693a50.01,50.01,0,0,1-78.13,41.34c-24.94-48.04-30.01-104.14-15.49-155.67l78.97,78.97A49.879,49.879,0,0,1,416.57,519.693Z"/><polygon id="S1" class="cls-4" points="417.08 131.403 488.08 202.403 536.076 153.419 463.923 84.796 417.08 131.403"/><path class="cls-2" d="M620,463.123a309.133,309.133,0,0,1-81.41,209.39q-4.56,4.995-9.39,9.81a308.141,308.141,0,0,1-102.58,68.1q-4.785,1.935-9.62,3.72C256.4,813.4,78.17,731.248,18.912,570.648A309.956,309.956,0,0,1,90.79,243.923a49.992,49.992,0,0,1,70.7-.011l.011.011,83.63,83.63q-4.53,9.3-8.43,18.94a308.243,308.243,0,0,0-21.76,92.28l-84.54-84.54C81.44,435,91.8,541.913,161.5,611.613c81.926,82.012,214.823,82.081,296.835.155l.225-.225a205.063,205.063,0,0,0,37-50.51,50.855,50.855,0,0,0,7.22-5.99l116.28-116.28Q620.005,450.868,620,463.123Z"/><path id="S5" class="cls-5" d="M245.58,327.9,180.9,263.32,139.508,363.341,214.08,438.4S259.08,347.4,245.58,327.9Z"/><path class="cls-2" d="M375.43,611.543a209.6,209.6,0,0,0,41.57,32.3,210.234,210.234,0,0,1-121.6,28.67A309.058,309.058,0,0,1,214,463.123q0-12.24.94-24.35a308.243,308.243,0,0,1,21.76-92.28q3.9-9.645,8.43-18.94a308.306,308.306,0,0,1,59.66-83.63l41.5-41.49L417,273.143l-40.21,40.2a210.668,210.668,0,0,0-53.84,92.02c-14.52,51.53-9.45,107.63,15.49,155.67A205.272,205.272,0,0,0,375.43,611.543Z"/><polygon id="S2" class="cls-6" points="417.08 273.403 346.08 202.403 298.08 250.403 370.233 320.403 417.08 273.403"/><path class="cls-2" d="M588.86,327.553l-77.82,77.81a210.573,210.573,0,0,0-53.84-92.02l-40.2-40.2-70.71-70.71-41.95-41.95a100,100,0,0,1,0-141.42L417,131.723l70.71,70.71,41.49,41.49A307.888,307.888,0,0,1,588.86,327.553Z"/><path id="S3" class="cls-7" d="M555.677,273.992s21.4,27.411,33.4,53.411l-78,78s-10.26-41.942-43.13-80.471C468.08,325.4,555.677,273.992,555.677,273.992Z"/><path class="cls-2" d="M834,463.123c-.091,171.3-139.03,310.091-310.33,310A310.158,310.158,0,0,1,417,754.143q4.83-1.785,9.62-3.72a308.141,308.141,0,0,0,102.58-68.1q4.815-4.815,9.39-9.81a209.082,209.082,0,0,0,133.9-60.9c69.7-69.7,80.07-176.61,31.1-257.38l-84.53,84.53L502.78,555.043a50.855,50.855,0,0,1-7.22,5.99,50.006,50.006,0,0,1-63.49-76.7l78.97-78.97,77.82-77.81,83.63-83.63a49.992,49.992,0,0,1,70.7-.011l.011.011A309.23,309.23,0,0,1,834,463.123Z"/><path class="cls-8" d="M538.59,672.513q-4.56,4.995-9.39,9.81a308.141,308.141,0,0,1-102.58,68.1q-4.785,1.935-9.62,3.72a311.156,311.156,0,0,0,202.08,4.1V650.373A209.92,209.92,0,0,1,538.59,672.513Z"/><path class="cls-9" d="M338.44,561.033c-.281-.54-.545-1.087-.821-1.63H229.265q3.357,10.27,7.435,20.35a307.513,307.513,0,0,0,58.7,92.76A210.234,210.234,0,0,0,417,643.843a209.6,209.6,0,0,1-41.57-32.3A205.272,205.272,0,0,1,338.44,561.033Z"/><path class="cls-10" d="M597.29,579.753A308.821,308.821,0,0,0,620,463.123q0-12.255-.94-24.36L502.78,555.043a50.855,50.855,0,0,1-7.22,5.99,205.063,205.063,0,0,1-37,50.51,210.746,210.746,0,0,1-24.26,20.843l145.325-16.139A309.015,309.015,0,0,0,597.29,579.753Z"/></g></g></g></svg>